<svg width="48" height="48" viewBox="0 0 48 48" fill="none" xmlns="http://www.w3.org/2000/svg">
<path d="M9 12.75C9 10.562 9.86919 8.46354 11.4164 6.91637C12.9635 5.36919 15.062 4.5 17.25 4.5C19.438 4.5 21.5365 5.36919 23.0836 6.91637C24.6308 8.46354 25.5 10.562 25.5 12.75C25.5 14.938 24.6308 17.0365 23.0836 18.5836C21.5365 20.1308 19.438 21 17.25 21C15.062 21 12.9635 20.1308 11.4164 18.5836C9.86919 17.0365 9 14.938 9 12.75ZM28.5 17.25C28.5 16.3636 28.6746 15.4858 29.0138 14.6669C29.353 13.8479 29.8502 13.1038 30.477 12.477C31.1038 11.8502 31.8479 11.353 32.6669 11.0138C33.4858 10.6746 34.3636 10.5 35.25 10.5C36.1364 10.5 37.0142 10.6746 37.8331 11.0138C38.6521 11.353 39.3962 11.8502 40.023 12.477C40.6498 13.1038 41.147 13.8479 41.4862 14.6669C41.8254 15.4858 42 16.3636 42 17.25C42 19.0402 41.2888 20.7571 40.023 22.023C38.7571 23.2888 37.0402 24 35.25 24C33.4598 24 31.7429 23.2888 30.477 22.023C29.2112 20.7571 28.5 19.0402 28.5 17.25ZM3 38.25C3 34.4707 4.50134 30.8461 7.17373 28.1737C9.84612 25.5013 13.4707 24 17.25 24C21.0293 24 24.6539 25.5013 27.3263 28.1737C29.9987 30.8461 31.5 34.4707 31.5 38.25V38.256L31.498 38.494C31.4938 38.7484 31.4249 38.9974 31.2979 39.2179C31.1709 39.4383 30.9899 39.6228 30.772 39.754C26.6904 42.2119 22.0145 43.5073 17.25 43.5C12.306 43.5 7.678 42.132 3.73 39.754C3.5117 39.623 3.33033 39.4386 3.20297 39.2182C3.07561 38.9978 3.00645 38.7485 3.002 38.494L3 38.25ZM34.5 38.256L34.498 38.544C34.4868 39.2106 34.3276 39.8664 34.032 40.464C37.5234 40.6793 41.0108 39.9832 44.152 38.444C44.3949 38.3253 44.6012 38.1431 44.7491 37.9167C44.897 37.6903 44.9809 37.4282 44.992 37.158C45.0626 35.4805 44.6988 33.8132 43.9358 32.3175C43.1729 30.8219 42.0366 29.5486 40.6371 28.621C39.2376 27.6934 37.6222 27.143 35.9475 27.023C34.2728 26.9029 32.5955 27.2175 31.078 27.936C33.3044 30.9132 34.5045 34.5324 34.498 38.25L34.5 38.256Z" fill="#A66AFB"/>
</svg>
