<svg width="20" height="20" viewBox="0 0 20 20" fill="none" xmlns="http://www.w3.org/2000/svg">
<path d="M11.8626 15.8333C12.5835 15.8333 12.9643 16.6867 12.4835 17.2233C12.1711 17.5729 11.7884 17.8525 11.3604 18.0438C10.9325 18.2351 10.4689 18.3337 10.0001 18.3333C9.53136 18.3337 9.0678 18.2351 8.63983 18.0438C8.21187 17.8525 7.82916 17.5729 7.5168 17.2233C7.0568 16.71 7.38514 15.9075 8.04514 15.8392L8.1368 15.8342L11.8626 15.8333Z" fill="#A66AFB"/>
<path d="M10.0001 1.66667C11.1318 1.66667 12.0885 2.41917 12.396 3.45084L12.4343 3.59334L12.441 3.62917C13.3596 4.14742 14.1424 4.87592 14.7253 5.75501C15.3082 6.63409 15.6745 7.63874 15.7943 8.68667L15.8176 8.92584L15.8335 9.16667V11.6092L15.851 11.7225C15.9651 12.3365 16.3048 12.8856 16.8034 13.2617L16.9426 13.3592L17.0776 13.4417C17.7943 13.8475 17.5443 14.9133 16.7634 14.995L16.6668 15H3.33345C2.47679 15 2.17762 13.8633 2.92262 13.4417C3.24014 13.262 3.51449 13.015 3.7264 12.718C3.93831 12.421 4.08265 12.0812 4.14929 11.7225L4.16679 11.6033L4.16762 9.12834C4.21843 8.03991 4.53525 6.98052 5.09036 6.0429C5.64546 5.10528 6.42192 4.31801 7.35178 3.75001L7.55845 3.62834L7.56679 3.59251C7.68466 3.09419 7.95257 2.64404 8.33436 2.30279C8.71614 1.96153 9.19342 1.74562 9.70179 1.68417L9.85345 1.67001L10.0001 1.66667Z" fill="#A66AFB"/>
<path d="M11.8626 15.8333C12.5835 15.8333 12.9643 16.6867 12.4835 17.2233C12.1711 17.5729 11.7884 17.8525 11.3604 18.0438C10.9325 18.2351 10.4689 18.3337 10.0001 18.3333C9.53136 18.3337 9.0678 18.2351 8.63983 18.0438C8.21187 17.8525 7.82916 17.5729 7.5168 17.2233C7.0568 16.71 7.38514 15.9075 8.04514 15.8392L8.1368 15.8342L11.8626 15.8333Z" stroke="#A66AFB"/>
<path d="M10.0001 1.66667C11.1318 1.66667 12.0885 2.41917 12.396 3.45084L12.4343 3.59334L12.441 3.62917C13.3596 4.14742 14.1424 4.87592 14.7253 5.75501C15.3082 6.63409 15.6745 7.63874 15.7943 8.68667L15.8176 8.92584L15.8335 9.16667V11.6092L15.851 11.7225C15.9651 12.3365 16.3048 12.8856 16.8034 13.2617L16.9426 13.3592L17.0776 13.4417C17.7943 13.8475 17.5443 14.9133 16.7634 14.995L16.6668 15H3.33345C2.47679 15 2.17762 13.8633 2.92262 13.4417C3.24014 13.262 3.51449 13.015 3.7264 12.718C3.93831 12.421 4.08265 12.0812 4.14929 11.7225L4.16679 11.6033L4.16762 9.12834C4.21843 8.03991 4.53525 6.98052 5.09036 6.0429C5.64546 5.10528 6.42192 4.31801 7.35178 3.75001L7.55845 3.62834L7.56679 3.59251C7.68466 3.09419 7.95257 2.64404 8.33436 2.30279C8.71614 1.96153 9.19342 1.74562 9.70179 1.68417L9.85345 1.67001L10.0001 1.66667Z" stroke="#A66AFB"/>
</svg>
