<svg width="20" height="20" viewBox="0 0 20 20" fill="none" xmlns="http://www.w3.org/2000/svg">
<path fill-rule="evenodd" clip-rule="evenodd" d="M7.06491 1.33333C7.13605 1.37448 7.19837 1.42925 7.24832 1.49451C7.29826 1.55977 7.33485 1.63424 7.35598 1.71365C7.37711 1.79307 7.38237 1.87587 7.37147 1.95732C7.36056 2.03878 7.33369 2.11728 7.29241 2.18833C7.12462 2.47853 7.00502 2.79401 6.93824 3.1225C6.98658 3.17083 7.03658 3.2175 7.08824 3.2625C7.43941 2.82877 7.88314 2.47906 8.38694 2.23899C8.89073 1.99892 9.44184 1.87455 9.99991 1.875C11.1774 1.875 12.2274 2.4175 12.9141 3.265C12.9641 3.22 13.0141 3.17333 13.0624 3.12583C12.9958 2.79613 12.8759 2.47949 12.7074 2.18833C12.6663 2.11731 12.6395 2.03888 12.6287 1.95752C12.6178 1.87615 12.6231 1.79345 12.6443 1.71413C12.6654 1.63482 12.7019 1.56044 12.7518 1.49524C12.8017 1.43005 12.8639 1.37531 12.9349 1.33417C13.0059 1.29302 13.0844 1.26626 13.1657 1.25543C13.2471 1.24459 13.3298 1.24989 13.4091 1.27101C13.4884 1.29214 13.5628 1.32868 13.628 1.37855C13.6932 1.42842 13.7479 1.49064 13.7891 1.56167C14.0919 2.08496 14.2824 2.66565 14.3482 3.26667C14.3578 3.35392 14.3488 3.4422 14.322 3.52576C14.2951 3.60933 14.251 3.6863 14.1924 3.75167C13.9916 3.97667 13.7716 4.185 13.5366 4.37583C13.7347 4.9366 13.7964 5.53648 13.7166 6.12583C13.6282 6.78583 13.0891 7.205 12.5357 7.295C12.3841 7.32 12.2324 7.3425 12.0799 7.3625C12.2066 7.55167 12.3074 7.75917 12.3791 7.98083C13.4605 7.84846 14.5288 7.6246 15.5724 7.31167C15.5185 6.57512 15.4225 5.84225 15.2849 5.11667C15.254 4.95378 15.289 4.78527 15.3823 4.64821C15.4756 4.51116 15.6195 4.41678 15.7824 4.38583C15.9453 4.35489 16.1138 4.38992 16.2509 4.48322C16.3879 4.57652 16.4823 4.72045 16.5132 4.88333C16.6882 5.8125 16.8032 6.76333 16.8499 7.73167C16.8567 7.86858 16.8183 8.00393 16.7406 8.11687C16.6629 8.22981 16.5502 8.31406 16.4199 8.35667C15.1474 8.7725 13.8207 9.06833 12.4532 9.23083C12.3916 9.5475 12.2699 9.84333 12.1007 10.1058C13.8224 10.28 15.4824 10.6658 17.0532 11.2375C17.1798 11.2836 17.2881 11.3693 17.362 11.482C17.4359 11.5946 17.4714 11.7281 17.4632 11.8625C17.3592 13.6341 17.0261 15.3848 16.4724 17.0708C16.4467 17.1488 16.4059 17.2209 16.3523 17.2831C16.2987 17.3453 16.2333 17.3964 16.16 17.4333C16.0867 17.4703 16.0068 17.4924 15.925 17.4985C15.8431 17.5046 15.7608 17.4945 15.6828 17.4688C15.6049 17.443 15.5327 17.4022 15.4705 17.3486C15.4083 17.295 15.3573 17.2297 15.3203 17.1564C15.2834 17.083 15.2612 17.0032 15.2552 16.9213C15.2491 16.8394 15.2592 16.7571 15.2849 16.6792C15.7561 15.2455 16.0573 13.7614 16.1824 12.2575C15.7657 12.1167 15.3416 11.9908 14.9124 11.8783C14.9691 12.0733 14.9991 12.2817 14.9991 12.5C14.9991 15.7967 12.8982 18.75 9.99908 18.75C7.10074 18.75 4.99908 15.7967 4.99908 12.5C4.99908 12.2817 5.02991 12.0742 5.08574 11.8783C4.65741 11.9908 4.23408 12.1167 3.81741 12.2575C3.94574 13.7892 4.25074 15.2708 4.71491 16.68C4.7417 16.7583 4.75269 16.8411 4.74723 16.9236C4.74178 17.0062 4.71998 17.0868 4.68312 17.1609C4.64625 17.235 4.59505 17.301 4.53248 17.3551C4.46991 17.4092 4.39721 17.4504 4.31861 17.4762C4.24001 17.502 4.15706 17.512 4.07458 17.5055C3.99211 17.499 3.91174 17.4762 3.83814 17.4384C3.76454 17.4006 3.69917 17.3486 3.64583 17.2854C3.59249 17.2221 3.55224 17.1489 3.52741 17.07C2.97336 15.384 2.64003 13.6333 2.53574 11.8617C2.52785 11.7273 2.56358 11.5939 2.63761 11.4814C2.71163 11.369 2.82 11.2834 2.94658 11.2375C4.28577 10.7501 5.67217 10.4038 7.08324 10.2042H7.09158C7.35908 10.1658 7.62824 10.1333 7.89908 10.1058C7.72651 9.8394 7.60657 9.54239 7.54574 9.23083C6.19783 9.07113 4.86909 8.77803 3.57908 8.35583C3.44878 8.31323 3.3361 8.22897 3.2584 8.11604C3.1807 8.0031 3.14229 7.86775 3.14908 7.73083C3.19658 6.76417 3.31074 5.8125 3.48658 4.88333C3.51752 4.72045 3.6119 4.57652 3.74896 4.48322C3.88601 4.38992 4.05452 4.35489 4.21741 4.38583C4.3803 4.41678 4.52422 4.51116 4.61752 4.64822C4.71082 4.78527 4.74585 4.95378 4.71491 5.11667C4.57824 5.835 4.48158 6.56667 4.42741 7.31167C5.45824 7.62083 6.52491 7.84667 7.62074 7.98083C7.69158 7.75917 7.79324 7.55167 7.91991 7.3625C7.76764 7.34253 7.61568 7.3203 7.46408 7.29583C6.91074 7.20417 6.37158 6.78583 6.28324 6.12583C6.20461 5.53558 6.26657 4.9351 6.46408 4.37333C6.22879 4.18264 6.00919 3.97335 5.80741 3.7475C5.74872 3.68204 5.70451 3.60493 5.67766 3.52121C5.65081 3.43749 5.64192 3.34905 5.65158 3.26167C5.71787 2.66243 5.908 2.08352 6.20991 1.56167C6.25105 1.49053 6.30582 1.4282 6.37108 1.37826C6.43634 1.32831 6.51081 1.29173 6.59023 1.2706C6.66964 1.24946 6.75245 1.2442 6.8339 1.25511C6.91535 1.26602 6.99385 1.29205 7.06491 1.33333Z" fill="#8E49F9"/>
</svg>
