<svg width="20" height="21" viewBox="0 0 20 21" fill="none" xmlns="http://www.w3.org/2000/svg">
<path fill-rule="evenodd" clip-rule="evenodd" d="M10.4417 14.0666C10.3245 14.1837 10.1657 14.2494 10 14.2494C9.83441 14.2494 9.67556 14.1837 9.55837 14.0666L3.30837 7.81663C3.19797 7.69815 3.13787 7.54145 3.14072 7.37953C3.14358 7.21761 3.20917 7.06312 3.32368 6.94861C3.43819 6.8341 3.59268 6.76851 3.7546 6.76565C3.91652 6.7628 4.07322 6.8229 4.1917 6.9333L10 12.7416L15.8084 6.9333C15.8656 6.87189 15.9346 6.82264 16.0113 6.78848C16.0879 6.75432 16.1707 6.73595 16.2546 6.73447C16.3385 6.73299 16.4219 6.74843 16.4997 6.77986C16.5775 6.8113 16.6482 6.85808 16.7076 6.91743C16.7669 6.97678 16.8137 7.04748 16.8451 7.1253C16.8766 7.20312 16.892 7.28648 16.8905 7.3704C16.889 7.45432 16.8707 7.53708 16.8365 7.61375C16.8024 7.69041 16.7531 7.75941 16.6917 7.81663L10.4417 14.0666Z" fill="#141414"/>
</svg>
