<svg width="20" height="20" viewBox="0 0 20 20" fill="none" xmlns="http://www.w3.org/2000/svg">
<path fill-rule="evenodd" clip-rule="evenodd" d="M10 1.875C5.5125 1.875 1.875 5.5125 1.875 10C1.875 14.4875 5.5125 18.125 10 18.125C14.4875 18.125 18.125 14.4875 18.125 10C18.125 5.5125 14.4875 1.875 10 1.875ZM7.8125 6.875C7.3625 6.875 7.1225 7.22417 7.0325 7.40333C6.92558 7.62871 6.8717 7.87557 6.875 8.125C6.875 8.37333 6.92417 8.62917 7.0325 8.84667C7.1225 9.02583 7.36167 9.375 7.8125 9.375C8.2625 9.375 8.5025 9.02583 8.5925 8.84667C8.70083 8.63 8.75 8.37333 8.75 8.125C8.75 7.87667 8.70083 7.62083 8.5925 7.40333C8.5025 7.22417 8.26333 6.875 7.8125 6.875ZM11.4075 7.40333C11.4975 7.22417 11.7367 6.875 12.1875 6.875C12.6375 6.875 12.8775 7.22417 12.9675 7.40333C13.0758 7.62 13.125 7.87667 13.125 8.125C13.125 8.37333 13.0758 8.62917 12.9675 8.84667C12.8775 9.02583 12.6383 9.375 12.1875 9.375C11.7375 9.375 11.4975 9.02583 11.4075 8.84667C11.3006 8.62129 11.2467 8.37443 11.25 8.125C11.25 7.87667 11.2992 7.62083 11.4075 7.40333ZM13.0933 13.0933C13.1547 13.0361 13.204 12.9671 13.2382 12.8904C13.2723 12.8138 13.2907 12.731 13.2922 12.6471C13.2936 12.5632 13.2782 12.4798 13.2468 12.402C13.2153 12.3242 13.1685 12.2535 13.1092 12.1941C13.0498 12.1348 12.9792 12.088 12.9013 12.0566C12.8235 12.0251 12.7401 12.0097 12.6562 12.0112C12.5723 12.0127 12.4896 12.031 12.4129 12.0652C12.3362 12.0993 12.2672 12.1486 12.21 12.21C11.9198 12.5003 11.5753 12.7305 11.1961 12.8876C10.8169 13.0447 10.4104 13.1256 10 13.1256C9.58955 13.1256 9.18312 13.0447 8.80392 12.8876C8.42473 12.7305 8.08019 12.5003 7.79 12.21C7.67152 12.0996 7.51482 12.0395 7.3529 12.0424C7.19098 12.0452 7.03649 12.1108 6.92198 12.2253C6.80747 12.3398 6.74188 12.4943 6.73902 12.6562C6.73616 12.8181 6.79627 12.9749 6.90667 13.0933C7.72712 13.9136 8.8398 14.3745 10 14.3745C11.1602 14.3745 12.2729 13.9136 13.0933 13.0933Z" fill="#8E49F9"/>
</svg>
