<svg width="20" height="21" viewBox="0 0 20 21" fill="none" xmlns="http://www.w3.org/2000/svg">
<path fill-rule="evenodd" clip-rule="evenodd" d="M6.43337 10.0583C6.31633 10.1755 6.25058 10.3343 6.25058 10.5C6.25058 10.6656 6.31633 10.8244 6.43337 10.9416L12.6834 17.1916C12.8018 17.302 12.9586 17.3621 13.1205 17.3593C13.2824 17.3564 13.4369 17.2908 13.5514 17.1763C13.6659 17.0618 13.7315 16.9073 13.7343 16.7454C13.7372 16.5835 13.6771 16.4268 13.5667 16.3083L7.75837 10.5L13.5667 4.69163C13.6281 4.63441 13.6774 4.56541 13.7115 4.48875C13.7457 4.41208 13.764 4.32932 13.7655 4.2454C13.767 4.16148 13.7516 4.07812 13.7201 4.0003C13.6887 3.92248 13.6419 3.85178 13.5826 3.79243C13.5232 3.73308 13.4525 3.6863 13.3747 3.65486C13.2969 3.62343 13.2135 3.60799 13.1296 3.60947C13.0457 3.61095 12.9629 3.62932 12.8863 3.66348C12.8096 3.69764 12.7406 3.74689 12.6834 3.8083L6.43337 10.0583Z" fill="#141414"/>
</svg>
