<svg width="44" height="44" viewBox="0 0 44 44" fill="none" xmlns="http://www.w3.org/2000/svg">
<path d="M20.625 8.3105C17.7524 6.47051 14.4114 5.49495 11 5.5C8.97048 5.49793 6.95548 5.84203 5.04167 6.5175C4.77362 6.61227 4.54154 6.7878 4.37737 7.01993C4.21321 7.25206 4.12504 7.52936 4.125 7.81367V33.9387C4.12503 34.1586 4.17783 34.3754 4.27897 34.5707C4.3801 34.766 4.52662 34.9342 4.70622 35.0612C4.88583 35.1882 5.09327 35.2702 5.31114 35.3005C5.52902 35.3307 5.75096 35.3082 5.95833 35.2348C7.57778 34.6637 9.28278 34.3729 11 34.375C14.6575 34.375 18.0088 35.6712 20.625 37.8327V8.3105ZM23.375 37.8327C26.0817 35.5926 29.4865 34.3695 33 34.375C34.771 34.375 36.465 34.6793 38.0417 35.2367C38.2492 35.31 38.4713 35.3325 38.6893 35.3022C38.9073 35.2719 39.1149 35.1897 39.2945 35.0625C39.4742 34.9353 39.6207 34.7669 39.7217 34.5713C39.8227 34.3757 39.8753 34.1588 39.875 33.9387V7.81367C39.875 7.52936 39.7868 7.25206 39.6226 7.01993C39.4585 6.7878 39.2264 6.61227 38.9583 6.5175C37.0445 5.84203 35.0295 5.49793 33 5.5C29.5886 5.49495 26.2476 6.47051 23.375 8.3105V37.8327Z" fill="#A66AFB"/>
</svg>
