<svg width="18" height="18" viewBox="0 0 18 18" fill="none" xmlns="http://www.w3.org/2000/svg">
<g clip-path="url(#clip0_6741_5411)">
<path fill-rule="evenodd" clip-rule="evenodd" d="M1.00921 0.0307617C1.13584 0.0307617 1.26123 0.0557037 1.37822 0.104164C1.49522 0.152624 1.60152 0.223652 1.69106 0.313194C1.7806 0.402737 1.85163 0.509039 1.90009 0.626031C1.94855 0.743024 1.97349 0.868416 1.97349 0.995048V4.20933C1.97353 4.63509 2.09436 5.05209 2.32194 5.41191C2.54953 5.77172 2.87454 6.05958 3.25921 6.24205V0.995048C3.25921 0.739303 3.3608 0.494033 3.54164 0.313194C3.72248 0.132356 3.96775 0.0307617 4.22349 0.0307617C4.47924 0.0307617 4.72451 0.132356 4.90535 0.313194C5.08618 0.494033 5.18778 0.739303 5.18778 0.995048V6.24205C5.57245 6.05958 5.89745 5.77172 6.12504 5.41191C6.35263 5.05209 6.47346 4.63509 6.47349 4.20933V0.995048C6.47349 0.739303 6.57509 0.494033 6.75593 0.313194C6.93677 0.132356 7.18203 0.0307617 7.43778 0.0307617C7.69352 0.0307617 7.93879 0.132356 8.11963 0.313194C8.30047 0.494033 8.40206 0.739303 8.40206 0.995048V4.20933C8.40197 5.09268 8.12195 5.95328 7.60219 6.66754C7.08244 7.38179 6.3497 7.91296 5.50921 8.18476V16.7142C5.50921 17.0552 5.37375 17.3822 5.13263 17.6233C4.89151 17.8644 4.56449 17.9999 4.22349 17.9999C3.8825 17.9999 3.55547 17.8644 3.31436 17.6233C3.07324 17.3822 2.93778 17.0552 2.93778 16.7142V8.18605C2.09708 7.91418 1.36419 7.38282 0.844415 6.6683C0.324643 5.95379 0.0447396 5.0929 0.044922 4.20933V0.995048C0.044922 0.739303 0.146516 0.494033 0.327355 0.313194C0.508193 0.132356 0.753463 0.0307617 1.00921 0.0307617ZM13.9306 0.0307617C11.6524 0.0307617 10.1494 2.25119 10.1494 4.51662C10.1494 6.32176 11.1033 8.09862 12.6436 8.74662V16.7142C12.6436 17.0552 12.7791 17.3822 13.0202 17.6233C13.2613 17.8644 13.5884 17.9999 13.9293 17.9999C14.2703 17.9999 14.5974 17.8644 14.8385 17.6233C15.0796 17.3822 15.2151 17.0552 15.2151 16.7142V8.74533C16.7579 8.09862 17.7119 6.32176 17.7119 4.51533C17.7119 2.25119 16.2076 0.0307617 13.9306 0.0307617Z" fill="#9650FA"/>
</g>
<defs>
<clipPath id="clip0_6741_5411">
<rect width="18" height="18" fill="white"/>
</clipPath>
</defs>
</svg>
