<svg width="20" height="20" viewBox="0 0 20 20" fill="none" xmlns="http://www.w3.org/2000/svg">
<path fill-rule="evenodd" clip-rule="evenodd" d="M13.7499 3.125C14.0815 3.125 14.3994 3.2567 14.6338 3.49112C14.8682 3.72554 14.9999 4.04348 14.9999 4.375V15.625C14.9999 15.9565 14.8682 16.2745 14.6338 16.5089C14.3994 16.7433 14.0815 16.875 13.7499 16.875H8.74994C8.41842 16.875 8.10048 16.7433 7.86606 16.5089C7.63164 16.2745 7.49994 15.9565 7.49994 15.625V12.5C7.49994 12.3342 7.43409 12.1753 7.31688 12.0581C7.19967 11.9408 7.0407 11.875 6.87494 11.875C6.70918 11.875 6.55021 11.9408 6.433 12.0581C6.31579 12.1753 6.24994 12.3342 6.24994 12.5V15.625C6.24994 16.288 6.51333 16.9239 6.98217 17.3928C7.45101 17.8616 8.0869 18.125 8.74994 18.125H13.7499C14.413 18.125 15.0489 17.8616 15.5177 17.3928C15.9865 16.9239 16.2499 16.288 16.2499 15.625V4.375C16.2499 3.71196 15.9865 3.07607 15.5177 2.60723C15.0489 2.13839 14.413 1.875 13.7499 1.875H8.74994C8.0869 1.875 7.45101 2.13839 6.98217 2.60723C6.51333 3.07607 6.24994 3.71196 6.24994 4.375V7.5C6.24994 7.66576 6.31579 7.82473 6.433 7.94194C6.55021 8.05915 6.70918 8.125 6.87494 8.125C7.0407 8.125 7.19967 8.05915 7.31688 7.94194C7.43409 7.82473 7.49994 7.66576 7.49994 7.5V4.375C7.49994 4.04348 7.63164 3.72554 7.86606 3.49112C8.10048 3.2567 8.41842 3.125 8.74994 3.125H13.7499ZM4.81661 7.05833C4.69942 6.94129 4.54056 6.87555 4.37494 6.87555C4.20931 6.87555 4.05046 6.94129 3.93327 7.05833L1.43327 9.55833C1.31623 9.67552 1.25049 9.83437 1.25049 10C1.25049 10.1656 1.31623 10.3245 1.43327 10.4417L3.93327 12.9417C4.05175 13.0521 4.20846 13.1122 4.37037 13.1093C4.53229 13.1065 4.68678 13.0409 4.80129 12.9264C4.9158 12.8118 4.98139 12.6574 4.98425 12.4954C4.98711 12.3335 4.92701 12.1768 4.81661 12.0583L3.38327 10.625H12.4999C12.6657 10.625 12.8247 10.5592 12.9419 10.4419C13.0591 10.3247 13.1249 10.1658 13.1249 10C13.1249 9.83424 13.0591 9.67527 12.9419 9.55806C12.8247 9.44085 12.6657 9.375 12.4999 9.375H3.38327L4.81661 7.94167C4.93365 7.82448 4.99939 7.66563 4.99939 7.5C4.99939 7.33437 4.93365 7.17552 4.81661 7.05833Z" fill="#FF3B32"/>
</svg>
