<svg width="38" height="38" viewBox="0 0 38 38" fill="none" xmlns="http://www.w3.org/2000/svg">
<path d="M16.34 22.42L12.2075 18.2875C11.8592 17.9392 11.4317 17.765 10.925 17.765C10.4183 17.765 9.975 17.955 9.595 18.335C9.24667 18.6833 9.0725 19.1267 9.0725 19.665C9.0725 20.2033 9.24667 20.6467 9.595 20.995L15.01 26.41C15.3583 26.7583 15.8017 26.9325 16.34 26.9325C16.8783 26.9325 17.3217 26.7583 17.67 26.41L28.4525 15.6275C28.8008 15.2792 28.975 14.8517 28.975 14.345C28.975 13.8383 28.785 13.395 28.405 13.015C28.0567 12.6667 27.6133 12.4925 27.075 12.4925C26.5367 12.4925 26.0933 12.6667 25.745 13.015L16.34 22.42ZM19 38C16.3717 38 13.9017 37.5009 11.59 36.5028C9.27833 35.5059 7.2675 34.1525 5.5575 32.4425C3.8475 30.7325 2.49407 28.7217 1.4972 26.41C0.499067 24.0983 0 21.6283 0 19C0 16.3717 0.499067 13.9017 1.4972 11.59C2.49407 9.27833 3.8475 7.2675 5.5575 5.5575C7.2675 3.8475 9.27833 2.49343 11.59 1.4953C13.9017 0.498433 16.3717 0 19 0C21.6283 0 24.0983 0.498433 26.41 1.4953C28.7217 2.49343 30.7325 3.8475 32.4425 5.5575C34.1525 7.2675 35.5059 9.27833 36.5028 11.59C37.5009 13.9017 38 16.3717 38 19C38 21.6283 37.5009 24.0983 36.5028 26.41C35.5059 28.7217 34.1525 30.7325 32.4425 32.4425C30.7325 34.1525 28.7217 35.5059 26.41 36.5028C24.0983 37.5009 21.6283 38 19 38Z" fill="#A66AFB"/>
</svg>
