<svg width="48" height="48" viewBox="0 0 48 48" fill="none" xmlns="http://www.w3.org/2000/svg">
<path d="M37.2636 36.9088C35.5973 36.9058 34 36.2489 32.8217 35.082C31.6433 33.9151 30.9798 32.3333 30.9764 30.6828C30.9777 29.6125 31.2578 28.5606 31.7894 27.6287C32.3211 26.6969 33.0864 25.9166 34.0115 25.3633L34.0396 25.3481L36.1149 31.0912C36.2884 31.5665 36.739 31.9002 37.2687 31.9002C37.4112 31.8992 37.5524 31.8735 37.686 31.8244L37.6771 31.8269C37.829 31.7727 37.9685 31.6893 38.0878 31.5816C38.2071 31.4738 38.3038 31.3439 38.3723 31.1991C38.4408 31.0543 38.4799 30.8976 38.4871 30.7378C38.4944 30.5781 38.4699 30.4185 38.4148 30.2682L38.4174 30.277L36.3421 24.5302C36.6165 24.4859 36.9343 24.4581 37.2572 24.4556H37.261C38.9273 24.4586 40.5245 25.1155 41.7029 26.2824C42.8813 27.4493 43.5448 29.0311 43.5482 30.6816C43.5455 32.3317 42.8827 33.9147 41.7051 35.0819C40.5274 36.249 38.9308 36.9064 37.2648 36.9101L37.2636 36.9088ZM23.3772 28.3884L19.3899 20.471L29.8379 19.9362L23.3772 28.3884ZM19.3899 29.4667C19.0644 27.2107 17.8542 25.1726 16.0217 23.7944L16 23.7793L17.2176 21.5973L21.1806 29.4667H19.3899ZM12.8232 29.4667L14.8003 25.9271C15.8782 26.827 16.6202 28.0592 16.9075 29.4263L16.9138 29.4667H12.8232ZM10.7454 36.9088C9.07906 36.9058 7.48185 36.2489 6.30347 35.082C5.12509 33.9151 4.46157 32.3333 4.4582 30.6828C4.46124 29.0324 5.12443 27.4504 6.30257 26.2833C7.48071 25.1161 9.07779 24.4589 10.7441 24.4556C11.4282 24.4556 12.0855 24.5643 12.7007 24.7653L12.656 24.7527L9.67326 30.1013C9.56888 30.2867 9.51579 30.4961 9.51938 30.7083C9.52296 30.9205 9.5831 31.128 9.69368 31.3099L9.69113 31.3048C9.9081 31.6651 10.2987 31.9015 10.7454 31.9027H16.9075C16.3076 34.7774 13.7728 36.9075 10.7364 36.9088H10.7454ZM37.2674 22.0234H37.2572C36.6369 22.0234 36.0319 22.0878 35.4474 22.2092L35.5048 22.1991L31.5048 11.1276C31.438 10.9458 31.3286 10.7823 31.1854 10.6506C31.0423 10.5189 30.8696 10.4229 30.6816 10.3704L30.6726 10.3678L25.7715 9.04301C25.4591 8.95836 25.1256 8.99968 24.8438 9.15792C24.5621 9.31617 24.3551 9.57847 24.268 9.88747L24.2655 9.89632C24.1807 10.2051 24.2224 10.5345 24.3816 10.8129C24.5408 11.0913 24.8046 11.2962 25.1155 11.383L25.1244 11.3855L29.4129 12.5435L31.187 17.4395L18.2017 18.1032L17.7179 17.145H19.1347C19.2955 17.1455 19.4549 17.1145 19.6037 17.0537C19.7524 16.993 19.8875 16.9037 20.0013 16.791C20.115 16.6783 20.2052 16.5445 20.2665 16.3972C20.3278 16.2499 20.3592 16.092 20.3586 15.9327C20.3586 15.6108 20.2296 15.3009 19.9998 15.0733C19.77 14.8457 19.4583 14.7178 19.1334 14.7178H12.0881C11.7631 14.7178 11.4515 14.8457 11.2217 15.0733C10.9919 15.3009 10.8628 15.6095 10.8628 15.9314C10.8623 16.0907 10.8936 16.2499 10.9549 16.3972C11.0163 16.5445 11.1064 16.6783 11.2202 16.791C11.3339 16.9037 11.4691 16.993 11.6178 17.0537C11.7665 17.1145 11.9259 17.1455 12.0868 17.145H14.9687L15.8877 18.9654L13.8545 22.6061C12.863 22.2239 11.8081 22.0284 10.7441 22.0297C8.42708 22.0317 6.20418 22.9438 4.5652 24.566C2.92623 26.1881 2.00372 28.3879 2 30.6828C2.00236 32.9783 2.92389 35.1804 4.56242 36.8038C6.20095 38.4272 8.4227 39.3406 10.7403 39.3436C12.8359 39.3399 14.8605 38.5912 16.4458 37.2337C18.0311 35.8763 19.0718 34.0003 19.3784 31.947L19.3835 31.9002H23.1564C23.3447 31.9003 23.5306 31.8573 23.6995 31.7746C23.8684 31.692 24.0158 31.5719 24.1302 31.4236L24.1327 31.4211L32.3433 20.677L33.1934 23.0309C30.3957 24.5112 28.5233 27.3821 28.5195 30.6854V30.6866C28.5218 32.982 29.4434 35.1827 31.082 36.8059C32.7205 38.4291 34.9423 39.3422 37.2597 39.3448C39.577 39.3422 41.7985 38.4292 43.437 36.8063C45.0756 35.1834 45.9973 32.983 46 30.6879C45.997 28.393 45.0751 26.1929 43.4366 24.5703C41.7981 22.9476 39.5767 22.0349 37.2597 22.0322L37.2674 22.0234Z" fill="#A66AFB"/>
</svg>
