<svg width="56" height="20" viewBox="0 0 56 20" fill="none" xmlns="http://www.w3.org/2000/svg">
<g clip-path="url(#clip0_1942_6202)">
<path d="M0 19.9796V0.808289H7.19151C11.5804 0.808289 13.9335 3.4827 13.9335 7.16353C13.9335 10.8441 11.554 13.4922 7.13856 13.4922H3.43712V19.9796H0ZM3.43712 10.6588H6.66272C9.25374 10.6588 10.4171 9.20231 10.4171 7.16353C10.4171 5.09792 9.25374 3.69449 6.66272 3.69449H3.43712V10.6588Z" fill="#141414"/>
<path d="M22.7273 9.70443C22.7273 8.28571 21.579 7.13562 20.1624 7.13562C18.7459 7.13562 17.5975 8.28571 17.5975 9.70443V17.4108C17.5975 18.8296 18.7459 19.9797 20.1624 19.9797C21.579 19.9797 22.7273 18.8296 22.7273 17.4108V9.70443Z" fill="#9650FA"/>
<path d="M22.7273 2.56881C22.7273 1.15009 21.579 0 20.1624 0C18.7459 0 17.5975 1.15009 17.5975 2.56881V3.42508C17.5975 4.84379 18.7459 5.99389 20.1624 5.99389C21.579 5.99389 22.7273 4.84379 22.7273 3.42508V2.56881Z" fill="#9650FA"/>
<path d="M26.3915 17.971C26.3915 19.1849 27.3844 20.1919 28.5702 19.941C30.2149 19.593 31.7578 18.8538 33.0545 17.7752C34.912 16.2305 36.1426 14.091 36.5248 11.7416C36.907 9.39231 36.4157 6.98736 35.1392 4.95941C34.2443 3.53743 33.0049 2.36635 31.5432 1.54005C30.4976 0.948646 29.2565 1.59285 28.876 2.73368C28.4861 3.90135 29.1732 5.13666 30.1197 5.92243C30.576 6.30148 30.9721 6.75041 31.2901 7.25592C32.0049 8.39164 32.2802 9.73855 32.0662 11.054C31.8521 12.3696 31.163 13.5678 30.1228 14.4329C29.6455 14.8296 29.1089 15.1444 28.5357 15.3691C27.4069 15.8112 26.3915 16.7571 26.3915 17.971Z" fill="#9650FA"/>
<path d="M40.3152 19.9797V0.606567H43.7886V9.51721H44.0556L51.6169 0.606567H55.8649L48.384 9.30314L55.9451 19.9797H51.7503L45.9525 11.6579L43.7886 14.1998V19.9797H40.3152Z" fill="#141414"/>
</g>
<defs>
<clipPath id="clip0_1942_6202">
<rect width="56" height="20" fill="white"/>
</clipPath>
</defs>
</svg>
