<svg width="48" height="48" viewBox="0 0 48 48" fill="none" xmlns="http://www.w3.org/2000/svg">
<path fill-rule="evenodd" clip-rule="evenodd" d="M13.5 4.5C13.8978 4.5 14.2794 4.65804 14.5607 4.93934C14.842 5.22064 15 5.60218 15 6V9H33V6C33 5.60218 33.158 5.22064 33.4393 4.93934C33.7206 4.65804 34.1022 4.5 34.5 4.5C34.8978 4.5 35.2794 4.65804 35.5607 4.93934C35.842 5.22064 36 5.60218 36 6V9H37.5C39.0913 9 40.6174 9.63214 41.7426 10.7574C42.8679 11.8826 43.5 13.4087 43.5 15V37.5C43.5 39.0913 42.8679 40.6174 41.7426 41.7426C40.6174 42.8679 39.0913 43.5 37.5 43.5H10.5C8.9087 43.5 7.38258 42.8679 6.25736 41.7426C5.13214 40.6174 4.5 39.0913 4.5 37.5V15C4.5 13.4087 5.13214 11.8826 6.25736 10.7574C7.38258 9.63214 8.9087 9 10.5 9H12V6C12 5.60218 12.158 5.22064 12.4393 4.93934C12.7206 4.65804 13.1022 4.5 13.5 4.5ZM40.5 22.5C40.5 21.7044 40.1839 20.9413 39.6213 20.3787C39.0587 19.8161 38.2957 19.5 37.5 19.5H10.5C9.70435 19.5 8.94129 19.8161 8.37868 20.3787C7.81607 20.9413 7.5 21.7044 7.5 22.5V37.5C7.5 38.2957 7.81607 39.0587 8.37868 39.6213C8.94129 40.1839 9.70435 40.5 10.5 40.5H37.5C38.2957 40.5 39.0587 40.1839 39.6213 39.6213C40.1839 39.0587 40.5 38.2957 40.5 37.5V22.5Z" fill="#A66AFB"/>
</svg>
