<svg width="48" height="48" viewBox="0 0 48 48" fill="none" xmlns="http://www.w3.org/2000/svg">
<path d="M10 44C8.9 44 7.95833 43.6083 7.175 42.825C6.39167 42.0417 6 41.1 6 40V12C6 10.9 6.39167 9.95833 7.175 9.175C7.95833 8.39167 8.9 8 10 8H12V6C12 5.43333 12.1917 4.95833 12.575 4.575C12.9583 4.19167 13.4333 4 14 4C14.5667 4 15.0417 4.19167 15.425 4.575C15.8083 4.95833 16 5.43333 16 6V8H32V6C32 5.43333 32.1917 4.95833 32.575 4.575C32.9583 4.19167 33.4333 4 34 4C34.5667 4 35.0417 4.19167 35.425 4.575C35.8083 4.95833 36 5.43333 36 6V8H38C39.1 8 40.0417 8.39167 40.825 9.175C41.6083 9.95833 42 10.9 42 12V20.05C42 20.6167 41.8083 21.0917 41.425 21.475C41.0417 21.8583 40.5667 22.05 40 22.05C39.4333 22.05 38.9583 21.8583 38.575 21.475C38.1917 21.0917 38 20.6167 38 20.05V20H10V40H22C22.5667 40 23.0417 40.1917 23.425 40.575C23.8083 40.9583 24 41.4333 24 42C24 42.5667 23.8083 43.0417 23.425 43.425C23.0417 43.8083 22.5667 44 22 44H10ZM28 42V38.7C28 38.4333 28.05 38.175 28.15 37.925C28.25 37.675 28.4 37.45 28.6 37.25L39.05 26.85C39.35 26.55 39.6833 26.3333 40.05 26.2C40.4167 26.0667 40.7833 26 41.15 26C41.55 26 41.9333 26.075 42.3 26.225C42.6667 26.375 43 26.6 43.3 26.9L45.15 28.75C45.4167 29.05 45.625 29.3833 45.775 29.75C45.925 30.1167 46 30.4833 46 30.85C46 31.2167 45.9333 31.5917 45.8 31.975C45.6667 32.3583 45.45 32.7 45.15 33L34.75 43.4C34.55 43.6 34.325 43.75 34.075 43.85C33.825 43.95 33.5667 44 33.3 44H30C29.4333 44 28.9583 43.8083 28.575 43.425C28.1917 43.0417 28 42.5667 28 42ZM41.15 32.8L43 30.85L41.15 29L39.25 30.9L41.15 32.8Z" fill="#A66AFB"/>
</svg>
